<?xml version="1.0" encoding="UTF-8"?>
<svg id="Capa_1" xmlns="http://www.w3.org/2000/svg" version="1.1" viewBox="0 0 600 600">
  <!-- Generator: Adobe Illustrator 29.8.3, SVG Export Plug-In . SVG Version: 2.1.1 Build 3)  -->
  <defs>
    <style>
      .st0 {
        font-family: Candara, Candara;
        font-size: 136.07px;
      }

      .st0, .st1 {
        fill: #fff;
      }

      .st2 {
        fill: #e76800;
      }
    </style>
  </defs>
  <g>
    <path class="st1" d="M423.42,580.98c-8.82,0-17.18-4.05-22.65-10.93-8.39-9.06-73.2-72.72-112.91-111.53-11.43-11.17-11.64-29.49-.47-40.93,11.17-11.43,29.49-11.64,40.93-.47.29.28,28.89,28.23,57.27,56.16,3.12,3.07,6.08,5.99,8.9,8.75v-135.94c0-52.87-42.66-95.88-95.09-95.88s-95.09,43.01-95.09,95.88v205.94c0,15.98-12.96,28.94-28.94,28.94s-28.94-12.96-28.94-28.94v-205.94c0-84.78,68.62-153.76,152.97-153.76s152.97,68.98,152.97,153.76v205.94c0,13.61-9.49,25.38-22.79,28.28-2.06.45-4.12.66-6.16.66ZM397.12,564.1s0,0,0,0c0,0,0,0,0,0ZM397.1,564.06s0,.02.01.03c0,0,0-.02-.01-.03Z"/>
    <circle class="st2" cx="299.4" cy="340.84" r="33.08"/>
  </g>
  <text class="st0" transform="translate(153.54 130.51)"><tspan x="0" y="0">AC95</tspan></text>
</svg>